<svg xmlns="http://www.w3.org/2000/svg" xmlns:svg="http://www.w3.org/2000/svg" width="48" height="48" viewBox="0 0 61.44 61.44" overflow="visible" version="1.1" id="svg92"><defs id="defs23"><linearGradient id="a" gradientUnits="userSpaceOnUse" x1="139.866" y1="75.713997" x2="202.49699" y2="138.345" gradientTransform="matrix(0.312,0,0,0.312,-9.216,-9.216)"><stop offset="0" stop-color="#e14e30" id="stop2"/><stop offset=".472" stop-color="#ff5b00" id="stop4"/><stop offset="1" stop-color="#c51700" id="stop6"/></linearGradient><linearGradient id="c" gradientUnits="userSpaceOnUse" x1="50.098999" y1="75.943001" x2="112.73" y2="138.57401" gradientTransform="matrix(0.312,0,0,0.312,-9.216,-9.216)"><stop offset="0" stop-color="#900" id="stop9"/><stop offset=".455" stop-color="#7c0000" id="stop11"/><stop offset="1" stop-color="#600000" id="stop13"/></linearGradient><linearGradient id="e" gradientUnits="userSpaceOnUse" x1="94.524002" y1="116.933" x2="157.15601" y2="179.565" gradientTransform="matrix(0.312,0,0,0.312,-9.216,-9.216)"><stop offset="0" stop-color="#093" id="stop16"/><stop offset=".455" stop-color="#006a00" id="stop18"/><stop offset="1" stop-color="#033" id="stop20"/></linearGradient></defs><path opacity="0.2" d="m 44.52528,9.2952 -12.0588,8.38416 c -0.34536,0.24048 -0.56424,0.6264 -0.56424,1.0476 V 30.2028 c 0,0.4248 0.20952,0.82272 0.56064,1.062 l 12.07152,8.2404 a 1.28568,1.28568 0 0 0 1.45944,-0.0065 l 12.07104,-8.3959 a 1.28784,1.28784 0 0 0 0.55224,-1.056 V 18.57096 c 0,-0.42552 -0.21096,-0.8232 -0.56256,-1.06296 L 45.984,9.288 A 1.2864,1.2864 0 0 0 44.52552,9.29496 Z M 16.518,9.36648 4.4592,17.75088 c -0.3456,0.24048 -0.56472,0.6264 -0.56472,1.04736 v 11.47584 c 0,0.4248 0.21,0.82272 0.56136,1.06176 l 12.07128,8.24088 a 1.28616,1.28616 0 0 0 1.45944,-0.0065 l 12.07128,-8.39616 a 1.2864,1.2864 0 0 0 0.55176,-1.056 v -11.4756 a 1.2864,1.2864 0 0 0 -0.56232,-1.0632 L 17.976,9.35952 a 1.28568,1.28568 0 0 0 -1.458,0.0072 z" font-size="12px" id="path25" style="stroke-width:0.24"/><path opacity="0.2" d="M 43.88256,9.08064 31.824,17.46504 c -0.34584,0.24048 -0.56424,0.6264 -0.56424,1.0476 v 11.47584 c 0,0.42456 0.20952,0.82272 0.56064,1.06152 l 12.07152,8.24088 a 1.28568,1.28568 0 0 0 1.45944,-0.0065 L 57.4224,30.88824 a 1.2864,1.2864 0 0 0 0.55176,-1.056 V 18.35688 c 0,-0.42552 -0.21048,-0.8232 -0.56208,-1.06296 L 45.34008,9.07368 A 1.28544,1.28544 0 0 0 43.8828,9.08088 Z M 15.87504,9.15168 3.816,17.53608 C 3.4704,17.7768 3.25152,18.16248 3.25152,18.58344 V 30.0588 c 0,0.42528 0.21,0.8232 0.56088,1.06248 l 12.07128,8.24016 a 1.28496,1.28496 0 0 0 1.45968,-0.0062 L 29.4144,30.95928 a 1.28688,1.28688 0 0 0 0.552,-1.056 V 18.42816 c 0,-0.42552 -0.21072,-0.8232 -0.56232,-1.0632 L 17.3328,9.1452 a 1.2864,1.2864 0 0 0 -1.458,0.00672 z" font-size="12px" id="path27" style="stroke-width:0.24"/><path fill="#ffffff" d="m 43.45368,9.08064 -12.0588,8.3844 c -0.3456,0.24048 -0.564,0.6264 -0.564,1.0476 v 11.47584 c 0,0.42456 0.20976,0.82272 0.56088,1.06152 l 12.07104,8.24088 a 1.28544,1.28544 0 0 0 1.45944,-0.0065 l 12.07152,-8.39616 a 1.2864,1.2864 0 0 0 0.55176,-1.056 V 18.35688 c 0,-0.42552 -0.21048,-0.8232 -0.56256,-1.06296 L 44.91168,9.07368 a 1.2864,1.2864 0 0 0 -1.458,0.0072 z" font-size="12px" id="path29" style="stroke-width:0.24"/><path fill="url(#a)" d="m 43.453656,9.080616 -12.0588,8.384376 c -0.345384,0.240552 -0.564096,0.626496 -0.564096,1.047696 V 29.98836 c 0,0.424632 0.209976,0.822744 0.560976,1.061736 l 12.070968,8.240856 A 1.28544,1.28544 0 0 0 44.92224,39.2844 L 56.993832,30.888168 A 1.286688,1.286688 0 0 0 57.545448,29.83236 V 18.356688 A 1.285128,1.285128 0 0 0 56.982912,17.293704 L 44.911632,9.07344 a 1.286376,1.286376 0 0 0 -1.457976,0.00718 z" font-size="12px" id="path31" style="fill:url(#a);stroke-width:0.312"/><path fill="#ffffff" d="m 44.18784,26.7528 -12.07104,-8.22336 12.07104,-8.3928 12.0708,8.22024 z" font-size="12px" id="path33" style="stroke-width:0.24"/><g transform="matrix(0.312,0,0,0.312,-9.216,-9.216)" font-size="12px" id="g42"><linearGradient id="b" gradientUnits="userSpaceOnUse" x1="385.97601" y1="1061.968" x2="498.108" y2="1056.0649" gradientTransform="matrix(0.384,0,0,0.384,-8.428,-317.487)"><stop offset="0" stop-color="#ff0" id="stop35"/><stop offset="1" stop-color="#ffa700" id="stop37"/></linearGradient><path fill="url(#b)" d="m 171.166,115.285 -38.689,-26.358 38.689,-26.9 38.689,26.347 z" id="path40" style="fill:url(#b)"/></g><path fill="#ff6d00" d="m 44.18784,38.2284 12.0708,-8.39592 V 18.35664 l -12.0708,8.3964 z" font-size="12px" id="path44" style="stroke-width:0.24"/><path fill="#ffa700" d="M 44.18784,38.2284 32.1168,29.988 V 18.5124 l 12.07296,8.24064 z" font-size="12px" id="path46" style="stroke-width:0.24"/><path opacity="0.2" d="m 30.3792,22.15536 -12.05928,8.3844 c -0.3456,0.24048 -0.564,0.6264 -0.564,1.04736 v 11.4756 c 0,0.4248 0.20976,0.82272 0.56088,1.06176 l 12.07128,8.24088 a 1.28448,1.28448 0 0 0 1.4592,-0.0065 l 12.07104,-8.3964 a 1.28664,1.28664 0 0 0 0.552,-1.05552 v -11.4756 c 0,-0.42528 -0.21072,-0.8232 -0.56232,-1.06272 l -12.07104,-8.22 a 1.2864,1.2864 0 0 0 -1.458,0.0067 z" font-size="12px" id="path48" style="stroke-width:0.24"/><path fill="url(#c)" d="M 15.446352,9.151752 3.38724,17.536128 C 3.041544,17.77668 2.822832,18.162624 2.822832,18.583512 v 11.47536 a 1.28544,1.28544 0 0 0 0.561288,1.06236 l 12.07128,8.240232 a 1.284504,1.284504 0 0 0 1.459224,-0.0062 l 12.07128,-8.39592 a 1.287312,1.287312 0 0 0 0.551616,-1.05612 V 18.428136 A 1.286376,1.286376 0 0 0 28.975296,17.365152 L 16.904016,9.144888 a 1.285752,1.285752 0 0 0 -1.457664,0.00686 z" font-size="12px" id="path50" style="fill:url(#c);stroke-width:0.312"/><path fill="#ffffff" d="M 16.18056,26.82432 4.1088,18.60072 16.18056,10.20792 28.25184,18.42816 Z" font-size="12px" id="path52" style="stroke-width:0.24"/><g transform="matrix(0.312,0,0,0.312,-9.216,-9.216)" font-size="12px" id="g61"><linearGradient id="d" gradientUnits="userSpaceOnUse" x1="152.205" y1="1062.563" x2="264.341" y2="1056.66" gradientTransform="matrix(0.384,0,0,0.384,-8.428,-317.487)"><stop offset="0" stop-color="#f99" id="stop54"/><stop offset="1" stop-color="#f66" id="stop56"/></linearGradient><path fill="url(#d)" d="m 81.399,115.514 -38.691,-26.358 38.691,-26.9 38.69,26.347 z" id="path59" style="fill:url(#d)"/></g><path opacity="0.2" d="m 29.736,21.9408 -12.05928,8.38416 c -0.3456,0.24072 -0.56424,0.62688 -0.56424,1.04784 v 11.4756 c 0,0.4248 0.21,0.82248 0.56112,1.06176 l 12.07104,8.24088 a 1.28616,1.28616 0 0 0 1.45968,-0.0067 l 12.0708,-8.39616 A 1.28712,1.28712 0 0 0 43.82688,42.6924 V 31.2168 A 1.2852,1.2852 0 0 0 43.2648,30.1536 L 31.19352,21.93408 a 1.2852,1.2852 0 0 0 -1.45752,0.007 z" font-size="12px" id="path63" style="stroke-width:0.24"/><path fill="#cf0000" d="m 16.18056,38.30016 12.07128,-8.3964 v -11.4756 l -12.07128,8.39616 z" font-size="12px" id="path65" style="stroke-width:0.24"/><path fill="#ff0000" d="M 16.18056,38.30016 4.1088,30.05928 V 18.58392 l 12.0732,8.2404 z" font-size="12px" id="path67" style="stroke-width:0.24"/><path fill="url(#e)" d="m 29.306952,21.940944 -12.0588,8.384064 c -0.345696,0.240552 -0.564096,0.626808 -0.564096,1.047696 v 11.475672 c 0,0.424632 0.209976,0.822432 0.560664,1.061736 L 29.316,52.150968 a 1.286064,1.286064 0 0 0 1.459536,-0.0066 l 12.071592,-8.396232 a 1.287,1.287 0 0 0 0.551616,-1.055808 V 31.216704 c 0,-0.42588 -0.210288,-0.82368 -0.562536,-1.062984 l -12.07128,-8.219952 a 1.286376,1.286376 0 0 0 -1.457976,0.0072 z" font-size="12px" id="path69" style="fill:url(#e);stroke-width:0.312"/><path fill="#66cc33" font-size="12px" d="M 30.04152,22.99704 17.982,31.38144 17.97,31.37304 v 11.4756 l 12.07152,8.24064 12.07152,-8.39616 V 31.21728 Z" id="path71" style="stroke-width:0.24"/><path fill="#ffffff" d="M 30.04152,39.6132 17.96976,31.3896 30.04152,22.99704 42.11304,31.21728 Z" font-size="12px" id="path73" style="stroke-width:0.24"/><g transform="matrix(0.312,0,0,0.312,-9.216,-9.216)" font-size="12px" id="g84"><linearGradient id="f" gradientUnits="userSpaceOnUse" x1="267.897" y1="1169.309" x2="380.034" y2="1163.406" gradientTransform="matrix(0.384,0,0,0.384,-8.428,-317.487)"><stop offset="0" stop-color="#cfc" id="stop75"/><stop offset=".41" stop-color="#9f6" id="stop77"/><stop offset="1" stop-color="#6c3" id="stop79"/></linearGradient><path fill="url(#f)" d="m 125.825,156.504 -38.691,-26.358 38.691,-26.899 38.691,26.347 z" id="path82" style="fill:url(#f)"/></g><path fill="#009933" d="M 30.04152,51.08928 42.11304,42.69312 V 31.21728 L 30.04152,39.6132 Z" font-size="12px" id="path86" style="stroke-width:0.24"/><path fill="#66cc33" d="M 30.04152,51.08928 17.96976,42.84864 V 31.37304 L 30.0432,39.6132 Z" font-size="12px" id="path88" style="stroke-width:0.24"/><path fill="none" font-size="12px" d="M 0,0 H 61.44 V 61.44 H 0 Z" id="path90" style="stroke-width:0.24"/></svg>