<svg xmlns:xlink="http://www.w3.org/1999/xlink" xmlns="http://www.w3.org/2000/svg" xmlns:svg="http://www.w3.org/2000/svg" xmlns:rdf="http://www.w3.org/1999/02/22-rdf-syntax-ns#" xmlns:cc="http://creativecommons.org/ns#" xmlns:dc="http://purl.org/dc/elements/1.1/" width="48" height="48" viewBox="100 160 48 48" version="1.1" id="svg2"><title id="title4">media film</title><defs id="defs6"><linearGradient id="linearGradient3759"><stop offset="0" id="stop3761" style="stop-color:#ffffff;stop-opacity:1"/><stop id="stop4037" offset="0.5" style="stop-color:#ffffff;stop-opacity:0.5"/><stop offset="1" id="stop3763" style="stop-color:#ffffff;stop-opacity:0"/></linearGradient><linearGradient xlink:href="#linearGradient3759" id="linearGradient3955" gradientUnits="userSpaceOnUse" x1="398.16" y1="105.22" x2="600.70001" y2="276.78" gradientTransform="translate(-62.857143,25.714286)"/><linearGradient xlink:href="#linearGradient3759" id="linearGradient3999" gradientUnits="userSpaceOnUse" x1="388.16" y1="335.07999" x2="529.27002" y2="518.76001" gradientTransform="translate(-62.857143,25.714286)"/><linearGradient xlink:href="#linearGradient3759" id="linearGradient4035" gradientUnits="userSpaceOnUse" x1="379.59" y1="601.35999" x2="558.13" y2="708.51001" gradientTransform="translate(-62.857143,25.714286)"/></defs><metadata id="metadata7"></metadata><g transform="matrix(0.05056076,0,0,0.05056076,105.29252,162.14359)" id="g4074"><path d="M 130.08,66.73 H 609.92 V 798 H 130.08 Z" id="rect3600" style="fill:#ffffff;stroke:#000000;stroke-width:26.01;stroke-linejoin:round"/><path id="path3674" d="M 565.2,66.99 V 801.33" style="fill:none;stroke:#000000;stroke-width:114.99"/><path id="path3676" d="m 528.53,249.51 h 71.66 v 69.93 h -71.66 z m 0.73,-108.12 h 71.66 v 69.93 h -71.66 z m -0.6,-89.12 h 71.66 v 49.93 h -71.66 z m 0.71,305.36 h 71.66 v 69.93 h -71.66 z m -0.25,108.08 h 71.66 v 69.93 h -71.66 z m -1.03,108 h 71.66 v 69.93 h -71.66 z m 1.28,106.42 h 71.66 v 69.93 h -71.66 z m -1.2,108.66 h 71.66 v 24.22 h -71.66 z" fill="#ffffff"/><rect id="rect3694" width="267.35999" height="231.64999" x="236.46001" y="77.970001" style="fill:#3465a4;stroke:#000000;stroke-width:13.75"/><rect y="321.37" x="236.44" height="230.25999" width="267.39999" id="rect3696" style="fill:#3465a4;stroke:#000000;stroke-width:13.71"/><rect id="rect3698" width="264.62" height="230.33" x="237.83" y="563.34003" style="fill:#3465a4;stroke:#000000;stroke-width:13.64"/><path d="M 175.2,64.33 V 801.14" id="path3735" style="fill:none;stroke:#000000;stroke-width:115.19"/><path d="m 138.53,249.51 h 71.66 v 69.93 h -71.66 z m 0.73,-108.12 h 71.66 v 69.93 h -71.66 z m -0.6,-89.84 h 71.66 v 50.65 h -71.66 z m 0.71,306.08 h 71.66 v 69.93 h -71.66 z m -0.25,108.08 h 71.66 v 69.93 h -71.66 z m -1.03,108 h 71.66 v 69.93 h -71.66 z m 1.28,106.42 h 71.66 v 69.93 h -71.66 z m -1.2,108.66 h 71.66 v 23.5 h -71.66 z" id="path3737" fill="#ffffff"/><path d="m 250.46,93.96 c 0,67.22 0,134.44 0,201.66 79.79,0 159.58,0 239.38,0 0,-67.89 0,-135.77 0,-203.66 -79.79,0 -159.58,0 -239.37,0 v 1 1 z" id="rect3753" style="opacity:0.67;fill:url(#linearGradient3955);stroke:#ffffff;stroke-width:13.75"/><path d="m 250.46,337.37 c 0,66.75 0,133.5 0,200.25 79.79,0 159.58,0 239.38,0 0,-67.42 0,-134.83 0,-202.25 -79.79,0 -159.58,0 -239.37,0 v 1 1 z" id="rect3755" style="opacity:0.67;fill:url(#linearGradient3999);stroke:#ffffff;stroke-width:13.71"/><path d="m 251.83,579.34 c 0,66.78 0,133.56 0,200.34 78.88,0 157.75,0 236.63,0 0,-67.45 0,-134.9 0,-202.34 -78.87,0 -157.75,0 -236.62,0 v 1 1 z" id="rect3757" style="opacity:0.67;fill:url(#linearGradient4035);stroke:#ffffff;stroke-width:13.64"/><path id="path4047" d="m 250.46,93.96 c 0,67.22 0,134.44 0,201.66 79.79,0 159.58,0 239.38,0 0,-67.89 0,-135.77 0,-203.66 -79.79,0 -159.58,0 -239.37,0 v 1 1 z" style="opacity:0.67;fill:none;stroke:#ffffff;stroke-width:13.75"/><path id="path4049" d="m 250.46,337.37 c 0,66.75 0,133.5 0,200.25 79.79,0 159.58,0 239.38,0 0,-67.42 0,-134.83 0,-202.25 -79.79,0 -159.58,0 -239.37,0 v 1 1 z" style="opacity:0.67;fill:none;stroke:#ffffff;stroke-width:13.71"/><path id="path4051" d="m 251.83,579.34 c 0,66.78 0,133.56 0,200.34 78.88,0 157.75,0 236.63,0 0,-67.45 0,-134.9 0,-202.34 -78.87,0 -157.75,0 -236.62,0 v 1 1 z" style="opacity:0.67;fill:none;stroke:#ffffff;stroke-width:13.64"/></g></svg>