<?xml version="1.0" encoding="UTF-8" standalone="no"?>
<!-- Created with Inkscape (http://www.inkscape.org/) -->

<svg
   width="210mm"
   height="297mm"
   viewBox="0 0 210 297"
   version="1.1"
   id="svg1"
   xml:space="preserve"
   inkscape:version="1.3.2 (091e20e, 2023-11-25, custom)"
   sodipodi:docname="titlepage.svg"
   xmlns:inkscape="http://www.inkscape.org/namespaces/inkscape"
   xmlns:sodipodi="http://sodipodi.sourceforge.net/DTD/sodipodi-0.dtd"
   xmlns="http://www.w3.org/2000/svg"
   xmlns:svg="http://www.w3.org/2000/svg"><sodipodi:namedview
     id="namedview1"
     pagecolor="#505050"
     bordercolor="#eeeeee"
     borderopacity="1"
     inkscape:showpageshadow="0"
     inkscape:pageopacity="0"
     inkscape:pagecheckerboard="0"
     inkscape:deskcolor="#505050"
     inkscape:document-units="mm"
     inkscape:zoom="0.74142547"
     inkscape:cx="36.416337"
     inkscape:cy="495.66682"
     inkscape:window-width="2560"
     inkscape:window-height="1369"
     inkscape:window-x="2552"
     inkscape:window-y="-8"
     inkscape:window-maximized="1"
     inkscape:current-layer="g2" /><defs
     id="defs1"><filter
       id="filter0_f_1860_91497"
       x="-406"
       y="0"
       width="1170"
       height="1170"
       filterUnits="userSpaceOnUse"
       color-interpolation-filters="sRGB"><feFlood
         flood-opacity="0"
         result="BackgroundImageFix"
         id="feFlood1" /><feBlend
         mode="normal"
         in="SourceGraphic"
         in2="BackgroundImageFix"
         result="shape"
         id="feBlend1" /><feGaussianBlur
         stdDeviation="138.83 100"
         result="effect1_foregroundBlur_1860_91497"
         id="feGaussianBlur1" /></filter><linearGradient
       id="paint0_linear_1860_91497"
       x1="179"
       y1="200"
       x2="179"
       y2="970"
       gradientUnits="userSpaceOnUse"><stop
         stop-color="#00C2FF"
         stop-opacity="0"
         id="stop1"
         offset="0"
         style="stop-color:#007eff;stop-opacity:0;" /><stop
         offset="1"
         stop-color="#FF29C3"
         stop-opacity="0.45"
         id="stop2"
         style="stop-color:#ff29dc;stop-opacity:0.44999999;" /></linearGradient></defs><g
     inkscape:label="Layer 1"
     inkscape:groupmode="layer"
     id="layer1"><rect
       style="fill:#ffffff;stroke:none;stroke-width:1.5;stroke-linecap:round"
       id="rect1"
       width="210"
       height="297"
       x="0"
       y="0" /><g
       style="fill:none"
       id="g1"
       transform="matrix(0.18141633,0,0,0.25145804,71.301326,0.52375979)"><path
         fill="url(#paint0_linear_1860_91497)"
         id="circle1"
         style="fill:url(#paint0_linear_1860_91497);filter:url(#filter0_f_1860_91497)"
         sodipodi:type="arc"
         sodipodi:cx="179"
         sodipodi:cy="585"
         sodipodi:rx="385"
         sodipodi:ry="385"
         sodipodi:start="0"
         sodipodi:end="6.1001457"
         sodipodi:open="true"
         sodipodi:arc-type="arc"
         d="M 564,585 A 385,385 0 0 1 196.61141,969.59698 385,385 0 0 1 -204.38877,620.18596 385,385 0 0 1 126.31316,203.62211 385,385 0 0 1 557.56856,514.92259" /><g
         id="g2"
         transform="translate(441.83515,36.897999)"><path
           class="st0"
           d="m -211.29074,1103.2414 h -89.58227 c -7.08236,0 -12.82481,-4.1428 -12.82481,-9.2525 v -6.2834 c 0,-5.1096 5.74245,-9.2526 12.82481,-9.2526 h 89.58227 c 7.08236,0 12.82482,4.143 12.82482,9.2526 v 6.2834 c 0,5.1097 -5.74246,9.2525 -12.82482,9.2525 z"
           id="path1"
           style="fill:#5998bf;fill-opacity:1;stroke-width:0.812926" /><path
           class="st0"
           d="m -194.06337,1004.8467 c 0,10.6336 0,23.1314 0,29.2768 0,2.4857 -1.3399,4.8334 -3.7326,6.5596 l -10.52787,7.5954 c -2.39263,1.7263 -5.64671,2.6929 -9.09221,2.6929 h -38.66582 -38.57015 c -3.44547,0 -6.69952,-0.9666 -9.09221,-2.6929 l -10.52783,-7.5954 c -2.39269,-1.7262 -3.7326,-4.0739 -3.7326,-6.5596 v -29.2768 c 0,-11.94544 -24.88396,-12.63593 -25.74533,-0.6905 0,0.3453 0,0.6215 0,0.9667 v 43.8461 c 0,13.6717 15.31321,24.7195 34.2633,24.7195 h 53.40482 53.40481 c 18.95007,0 34.26327,-11.0478 34.26327,-24.7195 v -43.8461 c 0,-0.3452 0,-0.6214 0,-0.9667 -0.76563,-11.87638 -25.64958,-11.18589 -25.64958,0.6905 z"
           id="path2"
           style="fill:#5998bf;fill-opacity:1;stroke-width:0.812926" /><ellipse
           class="st0"
           cx="-256.08188"
           cy="1003.0515"
           id="circle2"
           style="fill:#5998bf;fill-opacity:1;stroke-width:0.812926"
           rx="57.615944"
           ry="41.567463" /><ellipse
           class="st1"
           cx="-256.08188"
           cy="1003.0515"
           id="circle3"
           style="fill:#f7cdf8;stroke-width:0.812926;fill-opacity:1"
           rx="14.356132"
           ry="10.357342" /><ellipse
           class="st1"
           cx="-221.81854"
           cy="1003.1896"
           id="circle4"
           style="fill:#f7cdf8;stroke-width:0.812926;fill-opacity:1"
           rx="14.356132"
           ry="10.357342" /><ellipse
           class="st1"
           cx="-290.34518"
           cy="1003.1896"
           id="circle5"
           style="fill:#f7cdf8;stroke-width:0.812926;fill-opacity:1"
           rx="14.356132"
           ry="10.357342" /><ellipse
           class="st1"
           cx="-238.95021"
           cy="1024.5947"
           id="circle6"
           style="fill:#f7cdf8;stroke-width:0.812926;fill-opacity:1"
           rx="14.356132"
           ry="10.357342" /><ellipse
           class="st1"
           cx="-273.21353"
           cy="981.78442"
           id="circle7"
           style="fill:#f7cdf8;stroke-width:0.812926;fill-opacity:1"
           rx="14.356132"
           ry="10.357342" /><ellipse
           class="st1"
           cx="-238.95021"
           cy="981.78442"
           id="circle8"
           style="fill:#f7cdf8;stroke-width:0.812926;fill-opacity:1"
           rx="14.356132"
           ry="10.357342" /><ellipse
           class="st1"
           cx="-273.21353"
           cy="1024.5947"
           id="circle9"
           style="fill:#f7cdf8;stroke-width:0.812926;fill-opacity:1"
           rx="14.356132"
           ry="10.357342" /></g></g></g></svg>
